<svg width="30" height="30" viewBox="0 0 30 30" fill="none" xmlns="http://www.w3.org/2000/svg">
<path d="M18.7418 1.01831L18.259 1.26558L14.9965 2.93901L11.25 1.02065L8.96603 4.5562L4.76251 4.76831L4.55275 8.973L1.01837 11.2582L2.93907 15.0035L1.02072 18.75L4.55626 21.0339L4.76837 25.2375L8.97306 25.4472L11.2582 28.9816L15.0035 27.0609L18.75 28.9792L21.034 25.4437L25.2375 25.2316L25.4473 21.0269L28.9817 18.7417L27.061 14.9964L28.9793 11.25L25.4438 8.96597L25.2317 4.76245L21.027 4.55269L18.7418 1.01831ZM18.3235 2.58159L20.3531 5.72105L24.0879 5.9062L24.2766 9.64097L27.416 11.6695L25.7133 14.9964L27.4184 18.3234L24.2789 20.3531L24.0938 24.0878L20.359 24.2765L18.3305 27.416L15.0035 25.7132L11.6766 27.4183L9.64689 24.2789L5.91212 24.0937L5.72345 20.3589L2.584 18.3304L4.28673 15.0035L2.58165 11.6765L5.72111 9.64683L5.90626 5.91206L9.64103 5.72339L11.6695 2.58394L14.9965 4.28667L18.3235 2.58159ZM19.4848 11.0789L13.3641 17.0121L10.5246 14.1726L9.25197 15.4453L13.3442 19.5375L20.7375 12.3714L19.4848 11.0789Z" fill="#FFD700"/>
</svg>
