<svg width="30" height="30" viewBox="0 0 30 30" fill="none" xmlns="http://www.w3.org/2000/svg">
<path d="M6.75 0C3.02175 0 0 3.02175 0 6.75V23.25C0 26.9783 3.02175 30 6.75 30H23.25C26.9783 30 30 26.9783 30 23.25V6.75C30 3.02175 26.9783 0 23.25 0H6.75ZM15.7266 6.00732C20.2888 6.00732 24 9.80112 24 14.4639C24 17.3124 22.5582 19.9895 20.2324 21.542C20.2392 21.614 20.25 21.6838 20.25 21.7573C20.25 22.9993 19.242 24.0073 18 24.0073C17.1802 24.0073 16.4704 23.5642 16.0767 22.9087C15.9604 22.9139 15.8466 22.9219 15.7266 22.9219C14.9556 22.9219 14.282 22.9009 13.667 22.8589H13.5791C13.1936 23.5421 12.4658 24.0073 11.625 24.0073C10.4437 24.0073 9.48558 23.094 9.39258 21.9375C7.65858 21.1755 6.46527 19.9336 5.67627 18.0586C5.57877 17.8268 5.60344 17.5633 5.74219 17.354C5.88094 17.1448 6.11496 17.0186 6.36621 17.0186C7.15746 17.0186 7.45166 16.3261 7.45166 14.4653C7.45166 9.80183 11.1643 6.00732 15.7266 6.00732ZM15.7266 7.50732C11.9916 7.50732 8.95166 10.6276 8.95166 14.4639C8.95166 15.3871 8.95223 17.585 7.45898 18.293C8.02673 19.2837 8.78748 19.9713 9.79248 20.458C10.2005 19.885 10.8675 19.5073 11.625 19.5073C12.7335 19.5073 13.6494 20.311 13.8354 21.3662C14.3994 21.4037 15.0171 21.4219 15.7266 21.4219C15.8931 21.4219 16.0553 21.4156 16.2158 21.4028C17.2703 21.3256 18.2983 20.9931 19.1953 20.4419C21.2653 19.1721 22.5 16.9374 22.5 14.4639C22.5 10.6276 19.4616 7.50732 15.7266 7.50732ZM14.1943 11.2573C14.7013 11.2573 15.1113 11.6681 15.1113 12.1743C15.1113 12.6806 14.7006 13.0913 14.1943 13.0913C13.6881 13.0913 13.2773 12.6806 13.2773 12.1743C13.2773 11.6681 13.6873 11.2573 14.1943 11.2573ZM19.333 11.2573C19.8393 11.2573 20.25 11.6681 20.25 12.1743C20.25 12.6806 19.8393 13.0913 19.333 13.0913C18.8268 13.0913 18.416 12.6806 18.416 12.1743C18.416 11.6681 18.826 11.2573 19.333 11.2573ZM14.0596 15.1831C14.3507 15.1772 14.6297 15.3413 14.7568 15.6226C14.7846 15.6811 15.3484 16.834 16.8267 16.834C18.3402 16.834 18.8898 15.6404 18.895 15.6284C19.063 15.2497 19.5073 15.0788 19.8853 15.2476C20.264 15.4148 20.4334 15.859 20.2646 16.2378C20.2264 16.3233 19.3039 18.334 16.8267 18.334C14.3494 18.334 13.4269 16.3233 13.3887 16.2378C13.2207 15.859 13.3908 15.4156 13.7695 15.2476C13.8642 15.2057 13.9625 15.1851 14.0596 15.1831Z" fill="#FFD700"/>
</svg>
