<svg width="47" height="47" viewBox="0 0 47 47" fill="none" xmlns="http://www.w3.org/2000/svg">
<path d="M41.1 0.399902H5.9C2.8673 0.399902 0.4 2.8672 0.4 5.8999V41.0999C0.4 44.1326 2.8673 46.5999 5.9 46.5999H41.1C44.1327 46.5999 46.6 44.1326 46.6 41.0999V5.8999C46.6 2.8672 44.1327 0.399902 41.1 0.399902ZM36.7066 20.5552C36.4569 20.5783 36.2039 20.5937 35.9476 20.5937C33.0623 20.5937 30.5268 19.1098 29.0517 16.8669C29.0517 22.7508 29.0517 29.4454 29.0517 29.5576C29.0517 34.7375 24.8519 38.9373 19.672 38.9373C14.4921 38.9373 10.2923 34.7375 10.2923 29.5576C10.2923 24.3777 14.4921 20.1779 19.672 20.1779C19.8678 20.1779 20.0592 20.1955 20.2517 20.2076V24.8298C20.0592 24.8067 19.87 24.7715 19.672 24.7715C17.0276 24.7715 14.8848 26.9143 14.8848 29.5587C14.8848 32.2031 17.0276 34.3459 19.672 34.3459C22.3164 34.3459 24.6517 32.2625 24.6517 29.6181C24.6517 29.5136 24.6979 8.0647 24.6979 8.0647H29.1155C29.5313 12.0148 32.7202 15.1322 36.7066 15.4182V20.5552Z" fill="#FFD700"/>
</svg>
