<svg width="45" height="45" viewBox="0 0 45 45" fill="none" xmlns="http://www.w3.org/2000/svg">
<path d="M13.3297 0.5C6.25491 0.5 0.5 6.26025 0.5 13.3369V31.6702C0.5 38.7451 6.26024 44.5 13.3369 44.5H31.6702C38.745 44.5 44.5 38.7398 44.5 31.6631V13.3298C44.5 6.25492 38.7397 0.5 31.6631 0.5H13.3297ZM35.3333 7.83333C36.3453 7.83333 37.1666 8.65467 37.1666 9.66667C37.1666 10.6787 36.3453 11.5 35.3333 11.5C34.3213 11.5 33.5 10.6787 33.5 9.66667C33.5 8.65467 34.3213 7.83333 35.3333 7.83333ZM22.5 11.5C28.5665 11.5 33.5 16.4335 33.5 22.5C33.5 28.5665 28.5665 33.5 22.5 33.5C16.4335 33.5 11.5 28.5665 11.5 22.5C11.5 16.4335 16.4335 11.5 22.5 11.5ZM22.5 15.1667C20.5551 15.1667 18.6898 15.9393 17.3145 17.3146C15.9393 18.6898 15.1667 20.5551 15.1667 22.5C15.1667 24.4449 15.9393 26.3102 17.3145 27.6854C18.6898 29.0607 20.5551 29.8333 22.5 29.8333C24.4449 29.8333 26.3102 29.0607 27.6854 27.6854C29.0607 26.3102 29.8333 24.4449 29.8333 22.5C29.8333 20.5551 29.0607 18.6898 27.6854 17.3146C26.3102 15.9393 24.4449 15.1667 22.5 15.1667V15.1667Z" fill="#FFD700"/>
</svg>
